<?xml version="1.0" encoding="UTF-8" standalone="no"?>
<svg
   xmlns:dc="http://purl.org/dc/elements/1.1/"
   xmlns:cc="http://creativecommons.org/ns#"
   xmlns:rdf="http://www.w3.org/1999/02/22-rdf-syntax-ns#"
   xmlns:svg="http://www.w3.org/2000/svg"
   xmlns="http://www.w3.org/2000/svg"
   xmlns:sodipodi="http://sodipodi.sourceforge.net/DTD/sodipodi-0.dtd"
   xmlns:inkscape="http://www.inkscape.org/namespaces/inkscape"
   fill="none"
   height="2475.3665"
   viewBox="204.925 153.577 667.00157 852.06371"
   width="2200.9854"
   version="1.1"
   id="svg93"
   sodipodi:docname="cs-icon.svg"
   inkscape:version="1.0.2 (e86c870879, 2021-01-15, custom)">
  <metadata
     id="metadata99">
    <rdf:RDF>
      <cc:Work
         rdf:about="">
        <dc:format>image/svg+xml</dc:format>
        <dc:type
           rdf:resource="http://purl.org/dc/dcmitype/StillImage" />
      </cc:Work>
    </rdf:RDF>
  </metadata>
  <defs
     id="defs97" />
  <sodipodi:namedview
     pagecolor="#ffffff"
     bordercolor="#666666"
     borderopacity="1"
     objecttolerance="10"
     gridtolerance="10"
     guidetolerance="10"
     inkscape:pageopacity="0"
     inkscape:pageshadow="2"
     inkscape:window-width="2560"
     inkscape:window-height="1377"
     id="namedview95"
     showgrid="false"
     inkscape:zoom="0.4032"
     inkscape:cx="1124.4297"
     inkscape:cy="1257.3796"
     inkscape:window-x="-8"
     inkscape:window-y="-8"
     inkscape:window-maximized="1"
     inkscape:current-layer="svg93"
     inkscape:document-rotation="0" />
  <path
     d="m 873.51461,403.81493 c 0,-14.237 -3.034,-27.074 -9.336,-37.811 -6.068,-10.736 -15.171,-19.605 -27.307,-26.607 -100.829,-58.117 -201.891,-116.233 -302.72,-174.35 -27.308,-15.638 -53.449,-15.171 -80.523,0.7 -40.145,23.574 -241.336,138.873 -301.086,173.65 -24.741,14.237 -36.644,36.177 -36.644,64.652 v 351.033 c 0,14.004 3.034,26.374 8.869,37.111 6.069,10.97 15.405,20.306 27.775,27.541 59.984,34.777 260.941,149.843 301.086,173.65 27.074,15.86797 53.448,16.56797 80.523,0.7 100.829,-58.35 201.891,-116.233 302.72,-174.35 12.603,-7.235 21.706,-16.338 27.774,-27.541 5.835,-10.737 8.869,-23.107 8.869,-37.111 z"
     fill="#9a4993"
     id="path79" />
  <path
     d="m 495.64061,578.16493 -371.34,213.794 c 6.069,10.97 15.405,20.306 27.775,27.542 59.984,34.776 260.941,149.842 301.086,173.649 27.074,15.87197 53.449,16.57197 80.523,0.7 100.829,-58.35 201.891,-116.233 302.72,-174.349 12.603,-7.236 21.706,-16.338 27.774,-27.542 z"
     fill="#6a1577"
     id="path81" />
  <path
     d="m 385.70861,641.41593 c 21.707,37.811 62.318,63.252 108.765,63.252 46.913,0 87.758,-25.674 109.231,-63.952 l -108.064,-62.551 z"
     fill="#6a1577"
     id="path83" />
  <path
     d="m 873.51561,403.81493 c 0,-14.237 -3.035,-27.074 -9.336,-37.811 l -368.539,212.161 369.005,213.795 c 5.835,-10.737 8.87,-23.107 8.87,-37.111 z"
     fill="#813084"
     id="path85" />
  <g
     fill="#ffffff"
     id="g91"
     transform="translate(-89.026386,-4.1680735)">
    <path
       d="m 692.731,644.884 c -21.472,38.044 -62.317,63.952 -109.231,63.952 -46.68,0 -87.291,-25.441 -108.764,-63.252 -10.503,-18.438 -16.572,-39.444 -16.572,-62.084 0,-69.32 56.016,-125.336 125.336,-125.336 46.213,0 86.592,25.207 108.298,62.551 L 801.262,457.697 C 757.617,382.543 676.393,331.895 583.267,331.895 c -139.107,0 -251.605,112.732 -251.605,251.605 0,45.513 12.136,88.459 33.376,125.336 43.412,75.388 125.102,126.269 218.462,126.269 93.594,0 175.284,-51.114 218.696,-126.969 z M 831.137,523.983 h -24.974 v 120.668 h 24.974 z m 55.316,0 h -24.974 v 120.668 h 24.974 z"
       id="path87" />
    <path
       d="M 906.759,544.289 H 786.091 v 24.974 h 120.668 z m 0,55.082 H 786.091 v 24.974 h 120.668 z"
       id="path89" />
  </g>
</svg>
